HIERARCHY
ROOT Hips
{
    OFFSET   0.000000   0.000000   0.000000
    CHANNELS 6 Xposition Yposition Zposition Zrotation Xrotation Yrotation
    JOINT Chest
    {
        OFFSET   0.000000   8.007240   0.000000
        CHANNELS 3 Zrotation Xrotation Yrotation
        JOINT Chest2
        {
            OFFSET   0.000000  22.077100   0.000000
            CHANNELS 3 Zrotation Xrotation Yrotation
            JOINT Neck
            {
                OFFSET   0.000000  23.254800   0.000000
                CHANNELS 3 Zrotation Xrotation Yrotation
                JOINT Head
                {
                    OFFSET   0.000000  14.370000   1.956600
                    CHANNELS 3 Zrotation Xrotation Yrotation
                    End Site
                    {
                        OFFSET   0.000000  19.566000   0.000000
                    }
                }
            }
            JOINT LeftCollar
            {
                OFFSET   3.911900  19.017000  -0.467064
                CHANNELS 3 Zrotation Xrotation Yrotation
                JOINT LeftShoulder
                {
                    OFFSET  10.383700   0.000000   0.000000
                    CHANNELS 3 Zrotation Xrotation Yrotation
                    JOINT LeftElbow
                    {
                        OFFSET  26.662100   0.001476   0.000517
                        CHANNELS 3 Zrotation Xrotation Yrotation
                        JOINT LeftWrist
                        {
                            OFFSET  28.869000  -0.000025  -0.000106
                            CHANNELS 3 Zrotation Xrotation Yrotation
                            JOINT LeftFinger0
                            {
                                OFFSET   2.044660  -2.323460   3.252850
                                CHANNELS 3 Zrotation Xrotation Yrotation
                                JOINT LeftFinger01
                                {
                                    OFFSET   3.088130   0.000000   0.000000
                                    CHANNELS 3 Zrotation Xrotation Yrotation
                                    JOINT LeftFinger02
                                    {
                                        OFFSET   2.639460   0.000000   0.000000
                                        CHANNELS 3 Zrotation Xrotation Yrotation
                                        End Site
                                        {
                                            OFFSET   2.582190   0.000000   0.000000
                                        }
                                    }
                                }
                            }
                            JOINT LeftFinger1
                            {
                                OFFSET   8.364480   0.000000   3.252850
                                CHANNELS 3 Zrotation Xrotation Yrotation
                                JOINT LeftFinger11
                                {
                                    OFFSET   4.646930   0.000000   0.000000
                                    CHANNELS 3 Zrotation Xrotation Yrotation
                                    JOINT LeftFinger12
                                    {
                                        OFFSET   2.323460   0.000000   0.000000
                                        CHANNELS 3 Zrotation Xrotation Yrotation
                                        End Site
                                        {
                                            OFFSET   2.273050   0.000000   0.000000
                                        }
                                    }
                                }
                            }
                            JOINT LeftFinger2
                            {
                                OFFSET   8.364490   0.000015   1.078090
                                CHANNELS 3 Zrotation Xrotation Yrotation
                                JOINT LeftFinger21
                                {
                                    OFFSET   5.111620   0.000000   0.000000
                                    CHANNELS 3 Zrotation Xrotation Yrotation
                                    JOINT LeftFinger22
                                    {
                                        OFFSET   2.788160   0.000016   0.000000
                                        CHANNELS 3 Zrotation Xrotation Yrotation
                                        End Site
                                        {
                                            OFFSET   2.727660   0.000000   0.000000
                                        }
                                    }
                                }
                            }
                            JOINT LeftFinger3
                            {
                                OFFSET   7.899780   0.000017  -1.078090
                                CHANNELS 3 Zrotation Xrotation Yrotation
                                JOINT LeftFinger31
                                {
                                    OFFSET   4.646930   0.000000   0.000000
                                    CHANNELS 3 Zrotation Xrotation Yrotation
                                    JOINT LeftFinger32
                                    {
                                        OFFSET   2.323470   0.000000   0.000000
                                        CHANNELS 3 Zrotation Xrotation Yrotation
                                        End Site
                                        {
                                            OFFSET   2.273050   0.000000   0.000000
                                        }
                                    }
                                }
                            }
                            JOINT LeftFinger4
                            {
                                OFFSET   7.435090   0.000000  -3.252850
                                CHANNELS 3 Zrotation Xrotation Yrotation
                                JOINT LeftFinger41
                                {
                                    OFFSET   3.717550   0.000000   0.000000
                                    CHANNELS 3 Zrotation Xrotation Yrotation
                                    JOINT LeftFinger42
                                    {
                                        OFFSET   1.858770   0.000000   0.000000
                                        CHANNELS 3 Zrotation Xrotation Yrotation
                                        End Site
                                        {
                                            OFFSET   1.818440   0.000000   0.000000
                                        }
                                    }
                                }
                            }
                        }
                    }
                }
            }
            JOINT RightCollar
            {
                OFFSET  -3.911900  19.017000  -0.467063
                CHANNELS 3 Zrotation Xrotation Yrotation
                JOINT RightShoulder
                {
                    OFFSET -10.383700   0.000019   0.000000
                    CHANNELS 3 Zrotation Xrotation Yrotation
                    JOINT RightElbow
                    {
                        OFFSET -26.662100   0.001175   0.000102
                        CHANNELS 3 Zrotation Xrotation Yrotation
                        JOINT RightWrist
                        {
                            OFFSET -28.869000   0.000016  -0.000079
                            CHANNELS 3 Zrotation Xrotation Yrotation
                            JOINT RightFinger0
                            {
                                OFFSET  -2.044660  -2.323490   3.252850
                                CHANNELS 3 Zrotation Xrotation Yrotation
                                JOINT RightFinger01
                                {
                                    OFFSET  -3.088140   0.000000   0.000000
                                    CHANNELS 3 Zrotation Xrotation Yrotation
                                    JOINT RightFinger02
                                    {
                                        OFFSET  -2.639460   0.000000   0.000000
                                        CHANNELS 3 Zrotation Xrotation Yrotation
                                        End Site
                                        {
                                            OFFSET  -2.582190   0.000000   0.000000
                                        }
                                    }
                                }
                            }
                            JOINT RightFinger1
                            {
                                OFFSET  -8.364480   0.000000   3.252850
                                CHANNELS 3 Zrotation Xrotation Yrotation
                                JOINT RightFinger11
                                {
                                    OFFSET  -4.646930   0.000000   0.000000
                                    CHANNELS 3 Zrotation Xrotation Yrotation
                                    JOINT RightFinger12
                                    {
                                        OFFSET  -2.323470   0.000000   0.000000
                                        CHANNELS 3 Zrotation Xrotation Yrotation
                                        End Site
                                        {
                                            OFFSET  -2.273050   0.000000   0.000000
                                        }
                                    }
                                }
                            }
                            JOINT RightFinger2
                            {
                                OFFSET  -8.364480   0.000000   1.078090
                                CHANNELS 3 Zrotation Xrotation Yrotation
                                JOINT RightFinger21
                                {
                                    OFFSET  -5.111620   0.000000   0.000000
                                    CHANNELS 3 Zrotation Xrotation Yrotation
                                    JOINT RightFinger22
                                    {
                                        OFFSET  -2.788160   0.000000   0.000000
                                        CHANNELS 3 Zrotation Xrotation Yrotation
                                        End Site
                                        {
                                            OFFSET  -2.727660   0.000000   0.000000
                                        }
                                    }
                                }
                            }
                            JOINT RightFinger3
                            {
                                OFFSET  -7.899780   0.000000  -1.078090
                                CHANNELS 3 Zrotation Xrotation Yrotation
                                JOINT RightFinger31
                                {
                                    OFFSET  -4.646930   0.000000   0.000000
                                    CHANNELS 3 Zrotation Xrotation Yrotation
                                    JOINT RightFinger32
                                    {
                                        OFFSET  -2.323470   0.000000   0.000000
                                        CHANNELS 3 Zrotation Xrotation Yrotation
                                        End Site
                                        {
                                            OFFSET  -2.273050   0.000000   0.000000
                                        }
                                    }
                                }
                            }
                            JOINT RightFinger4
                            {
                                OFFSET  -7.435090   0.000000  -3.252850
                                CHANNELS 3 Zrotation Xrotation Yrotation
                                JOINT RightFinger41
                                {
                                    OFFSET  -3.717550   0.000000   0.000000
                                    CHANNELS 3 Zrotation Xrotation Yrotation
                                    JOINT RightFinger42
                                    {
                                        OFFSET  -1.858770   0.000000   0.000000
                                        CHANNELS 3 Zrotation Xrotation Yrotation
                                        End Site
                                        {
                                            OFFSET  -1.818440   0.000000   0.000000
                                        }
                                    }
                                }
                            }
                        }
                    }
                }
            }
        }
    }
    JOINT LeftHip
    {
        OFFSET   9.783040   0.000000   0.000000
        CHANNELS 3 Zrotation Xrotation Yrotation
        JOINT LeftKnee
        {
            OFFSET   0.000032 -41.789100  -0.002222
            CHANNELS 3 Zrotation Xrotation Yrotation
            JOINT LeftAnkle
            {
                OFFSET   0.000087 -41.133200  -0.000135
                CHANNELS 3 Zrotation Xrotation Yrotation
                JOINT LeftToe
                {
                    OFFSET   0.000000  -6.358960  14.674500
                    CHANNELS 3 Zrotation Xrotation Yrotation
                    End Site
                    {
                        OFFSET   0.000000   0.000000   3.913200
                    }
                }
            }
        }
    }
    JOINT RightHip
    {
        OFFSET  -9.783040   0.000000   0.000000
        CHANNELS 3 Zrotation Xrotation Yrotation
        JOINT RightKnee
        {
            OFFSET   0.000047 -41.789100  -0.000896
            CHANNELS 3 Zrotation Xrotation Yrotation
            JOINT RightAnkle
            {
                OFFSET  -0.000117 -41.133300  -0.000248
                CHANNELS 3 Zrotation Xrotation Yrotation
                JOINT RightToe
                {
                    OFFSET   0.000000  -6.358970  14.674500
                    CHANNELS 3 Zrotation Xrotation Yrotation
                    End Site
                    {
                        OFFSET   0.000000   0.000000   3.913200
                    }
                }
            }
        }
    }
}
MOTION
Frames: 5
Frame Time:   0.016667
  2.502890  89.507200   1.959320  -3.282720  -6.650800  -0.243768   1.328110   4.661780  -0.428950   2.704820   9.312160  -0.971458   0.422545  -0.652237   0.003836   0.693116  -1.322530   5.571650  -7.082430   1.750810  -0.074105 -68.590900  18.294800  -9.613440  -1.931940  -5.084910 -11.436100   5.020760  -9.092590   9.547720  42.483100  32.023900 -71.592300  -6.819130   0.006381   0.004389   1.594490   0.004465   0.002299 -26.832800   5.345590 -10.437900 -22.354100   0.003246   0.000000 -15.640100   0.002226  -0.001211 -27.404400   3.029540  -5.835210 -29.491700  -0.003410  -0.001841 -19.641500   0.002225  -0.001232 -27.063000   0.579118  -1.162230 -27.262000   0.001217  -0.001615 -18.142200   0.001968  -0.001066 -29.505700   0.642858  -1.135810 -44.268200   0.001501  -0.012250 -29.482600   0.002098   0.000257   8.580170  -1.047520  10.901800  67.309600   8.632350  -0.436037   0.413631  -6.015280   9.348310 -11.496000  -7.945210   1.463340 -49.156000  42.635900  81.413400  25.546700  -0.002237  -0.000429   7.773350  -0.002003  -0.000259  41.178200  11.471700  12.808500  34.748300   0.000308   0.012585  24.827500   0.011209   0.005859  31.637400   4.934630   7.942020  47.970600   0.001608   0.002465  31.948500   0.005557   0.006839  34.562800   3.164280   4.564890  52.034200  -0.000735  -0.003169  34.654800   0.004513   0.004632  49.429300  -4.300000  -3.673200  74.350900   0.012931   0.004333  49.517700   0.007282  -0.001177   2.941550  11.384200   0.653236   0.096663   0.496342   1.634440  -1.515590  -4.380140   3.091860  -0.000000   0.000000  -0.000000   1.021530   5.515200  -2.011000   0.200905   5.977000  -3.248710  -2.002820  -3.516060  -1.958920  -0.000000   0.000000   0.000000
  2.498580  89.507200   1.948920  -3.281030  -6.666220  -0.228640   1.328070   4.674580  -0.418705   2.704300   9.338000  -0.951197   0.424440  -0.667533   0.003835   0.696342  -1.353670   5.559900  -7.088910   1.733210  -0.086947 -68.575500  18.311100  -9.614360  -1.935170  -5.098430 -11.439100   5.016190  -9.081820   9.530630  42.484400  32.024100 -71.591700  -6.815060   0.006379   0.004383   1.594490   0.004466   0.002303 -26.831100   5.345590 -10.437900 -22.352500   0.003247   0.000000 -15.640300   0.002224  -0.001214 -27.404500   3.029480  -5.834610 -29.484500  -0.003410  -0.001838 -19.636700   0.002225  -0.001230 -27.063100   0.578970  -1.162230 -27.257800   0.001219  -0.001613 -18.142100   0.001968  -0.001064 -29.505700   0.642858  -1.135810 -44.268200   0.001500  -0.012254 -29.482600   0.002098   0.000258   8.577620  -1.077510  10.901000  67.288900   8.661090  -0.436149   0.428089  -6.024010   9.294780 -11.495700  -7.918990   1.442750 -49.159100  42.629400  81.387900  25.546700  -0.002239  -0.000420   7.773350  -0.001996  -0.000260  41.094700  11.470100  12.843100  34.682700   0.000308   0.012587  24.766600   0.011209   0.005858  31.582900   4.934410   7.961920  47.889900   0.001608   0.002464  31.894800   0.005555   0.006836  34.529600   3.164230   4.578060  51.984700  -0.000736  -0.003168  34.621800   0.004509   0.004632  49.388700  -4.285040  -3.664550  74.288800   0.012930   0.004331  49.476300   0.007281  -0.001175   2.944830  11.391600   0.653327   0.098011   0.490201   1.630400  -1.521400  -4.369610   3.077630  -0.000000   0.000000  -0.000000   1.025320   5.520540  -2.010970   0.201893   5.982150  -3.255640  -2.010430  -3.516010  -1.968110   0.000000   0.000000   0.000000
  2.491070  89.507100   1.932110  -3.278360  -6.689380  -0.205065   1.327570   4.693550  -0.402314   2.701960   9.376330  -0.918694   0.428179  -0.690902   0.003835   0.702126  -1.401140   5.539110  -7.098230   1.706040  -0.105775 -68.551600  18.327300  -9.615280  -1.938750  -5.111890 -11.446100   5.010760  -9.065950   9.513410  42.494100  32.023300 -71.589200  -6.811000   0.006374   0.004368   1.594490   0.004468   0.002306 -26.826700   5.345590 -10.437900 -22.348900   0.003249   0.000000 -15.640500   0.002219  -0.001216 -27.404600   3.029430  -5.831700 -29.470000  -0.003408  -0.001831 -19.627000   0.002226  -0.001226 -27.063100   0.578762  -1.162230 -27.251300   0.001220  -0.001603 -18.142000   0.001969  -0.001057 -29.505700   0.642856  -1.135810 -44.268200   0.001499  -0.012263 -29.482600   0.002098   0.000258   8.572760  -1.122440  10.897800  67.259800   8.700290  -0.436339   0.449955  -6.035050   9.205980 -11.496200  -7.892790   1.416740 -49.158900  42.616100  81.350900  25.546700  -0.002240  -0.000411   7.773360  -0.001989  -0.000261  40.973600  11.467900  12.893100  34.587700   0.000310   0.012592  24.678500   0.011208   0.005853  31.505700   4.934120   7.990140  47.775600   0.001607   0.002460  31.818600   0.005550   0.006830  34.491600   3.164160   4.593120  51.927900  -0.000738  -0.003166  34.584000   0.004501   0.004632  49.339400  -4.265100  -3.655110  74.213300   0.012930   0.004325  49.426000   0.007281  -0.001169   2.950270  11.402300   0.653426   0.101276   0.484060   1.622930  -1.531280  -4.352990   3.055450  -0.000000   0.000000  -0.000000   1.032000   5.525880  -2.010930   0.203150   5.994790  -3.262610  -2.022310  -3.515790  -1.983520  -0.000000   0.000000   0.000000
  2.484270  89.507100   1.919720  -3.276570  -6.701970  -0.189619   1.325790   4.703230  -0.390378   2.697290   9.395990  -0.894803   0.433662  -0.705462   0.003837   0.708838  -1.430440   5.519880  -7.102020   1.689280  -0.114959 -68.531500  18.327400  -9.610680  -1.939310  -5.111150 -11.458600   5.014180  -9.056760   9.514060  42.497500  31.997400 -71.547300  -6.819220   0.006369   0.004342   1.590380   0.004464   0.002300 -26.819100   5.340270 -10.431400 -22.342200   0.003250  -0.000000 -15.638900   0.002208  -0.001210 -27.405000   3.029620  -5.823660 -29.447700  -0.003404  -0.001823 -19.612100   0.002223  -0.001219 -27.063100   0.578674  -1.155360 -27.246000   0.001219  -0.001586 -18.142200   0.001969  -0.001044 -29.499500   0.638938  -1.129150 -44.258700   0.001501  -0.012274 -29.476300   0.002098   0.000258   8.567700  -1.146520  10.890800  67.249000   8.710600  -0.436507   0.463611  -6.037440   9.131940 -11.498500  -7.898560   1.410450 -49.142200  42.599000  81.328900  25.540800  -0.002231  -0.000411   7.770370  -0.002001  -0.000251  40.914600  11.466800  12.917600  34.541400   0.000313   0.012604  24.635600   0.011205   0.005847  31.472700   4.934030   8.002510  47.726800   0.001601   0.002455  31.786100   0.005540   0.006820  34.486100   3.163810   4.595310  51.919500  -0.000742  -0.003167  34.578400   0.004489   0.004638  49.329200  -4.259300  -3.654210  74.197600   0.012930   0.004315  49.415600   0.007280  -0.001161   2.954720  11.405500   0.653420   0.107772   0.484327   1.613280  -1.539310  -4.343480   3.041970  -0.000000   0.000000  -0.000000   1.038680   5.513570  -2.015840   0.203263   6.019600  -3.259720  -2.030070  -3.514670  -1.996730   0.000000   0.000000   0.000000
  2.477310  89.507000   1.908010  -3.275010  -6.712790  -0.176203   1.323720   4.711130  -0.379788   2.692580   9.412080  -0.873554   0.437301  -0.716823   0.003842   0.713662  -1.453240   5.499290  -7.104960   1.674230  -0.121991 -68.520700  18.326800  -9.604000  -1.936170  -5.107390 -11.467300   5.023510  -9.052530   9.519610  42.493600  31.969900 -71.509300  -6.832850   0.006360   0.004310   1.583550   0.004461   0.002295 -26.814600   5.334600 -10.422300 -22.337600   0.003251   0.000000 -15.637400   0.002195  -0.001204 -27.405300   3.029990  -5.816790 -29.432800  -0.003396  -0.001811 -19.602200   0.002220  -0.001211 -27.063300   0.578647  -1.146000 -27.243000   0.001218  -0.001561 -18.143800   0.001969  -0.001027 -29.493300   0.633615  -1.120050 -44.249200   0.001503  -0.012289 -29.470000   0.002098   0.000258   8.561720  -1.167070  10.882100  67.241900   8.715970  -0.436654   0.474017  -6.039680   9.066270 -11.500000  -7.905120   1.409570 -49.130100  42.582000  81.320500  25.528400  -0.002222  -0.000411   7.764170  -0.002012  -0.000242  40.878700  11.466200  12.932500  34.513200   0.000317   0.012616  24.609500   0.011199   0.005839  31.455400   4.934020   8.008530  47.701200   0.001592   0.002450  31.769000   0.005528   0.006808  34.485300   3.163220   4.595620  51.918300  -0.000748  -0.003167  34.577600   0.004473   0.004647  49.327800  -4.258470  -3.654050  74.195400   0.012931   0.004302  49.414100   0.007279  -0.001150   2.958880  11.410500   0.653337   0.112350   0.484594   1.607060  -1.548120  -4.331450   3.028350  -0.000000   0.000000  -0.000000   1.045470   5.501240  -2.024680   0.202758   6.036940  -3.254540  -2.036890  -3.511510  -2.008700  -0.000000   0.000000  -0.000000
